<mxfile host="www.draw.io" modified="2019-12-01T00:51:07.386Z" agent="Mozilla/5.0 (Windows NT 10.0; Win64; x64) AppleWebKit/537.36 (KHTML, like Gecko) Chrome/78.0.3904.108 Safari/537.36" etag="OjuuMZy9inPNcLOwvreS" version="12.3.3" type="github" pages="1">
  <diagram id="NOa-WRF0LxRN3GdIWyRk" name="Page-1">
    <mxGraphModel dx="1209" dy="643" grid="1" gridSize="10" guides="1" tooltips="1" connect="1" arrows="1" fold="1" page="1" pageScale="1" pageWidth="827" pageHeight="1169" math="0" shadow="0">
      <root>
        <mxCell id="0"/>
        <mxCell id="1" parent="0"/>
        <mxCell id="ip46v-V34NV9mjhSKVE6-1" value="Camera" style="whiteSpace=wrap;html=1;aspect=fixed;" vertex="1" parent="1">
          <mxGeometry x="160" y="200" width="80" height="80" as="geometry"/>
        </mxCell>
        <mxCell id="ip46v-V34NV9mjhSKVE6-2" value="Gesture Recognition" style="whiteSpace=wrap;html=1;aspect=fixed;" vertex="1" parent="1">
          <mxGeometry x="320" y="140" width="80" height="80" as="geometry"/>
        </mxCell>
        <mxCell id="ip46v-V34NV9mjhSKVE6-3" value="Tracker" style="whiteSpace=wrap;html=1;aspect=fixed;" vertex="1" parent="1">
          <mxGeometry x="320" y="260" width="80" height="80" as="geometry"/>
        </mxCell>
        <mxCell id="ip46v-V34NV9mjhSKVE6-4" value="" style="endArrow=classic;html=1;entryX=0;entryY=0.5;entryDx=0;entryDy=0;" edge="1" parent="1" target="ip46v-V34NV9mjhSKVE6-2">
          <mxGeometry width="50" height="50" relative="1" as="geometry">
            <mxPoint x="280" y="180" as="sourcePoint"/>
            <mxPoint x="210" y="360" as="targetPoint"/>
          </mxGeometry>
        </mxCell>
        <mxCell id="ip46v-V34NV9mjhSKVE6-5" value="" style="endArrow=none;html=1;" edge="1" parent="1">
          <mxGeometry width="50" height="50" relative="1" as="geometry">
            <mxPoint x="280" y="300" as="sourcePoint"/>
            <mxPoint x="280" y="180" as="targetPoint"/>
          </mxGeometry>
        </mxCell>
        <mxCell id="ip46v-V34NV9mjhSKVE6-6" value="" style="endArrow=classic;html=1;entryX=0;entryY=0.5;entryDx=0;entryDy=0;" edge="1" parent="1" target="ip46v-V34NV9mjhSKVE6-3">
          <mxGeometry width="50" height="50" relative="1" as="geometry">
            <mxPoint x="280" y="300" as="sourcePoint"/>
            <mxPoint x="210" y="360" as="targetPoint"/>
          </mxGeometry>
        </mxCell>
        <mxCell id="ip46v-V34NV9mjhSKVE6-7" value="" style="endArrow=none;html=1;exitX=1;exitY=0.5;exitDx=0;exitDy=0;" edge="1" parent="1" source="ip46v-V34NV9mjhSKVE6-1">
          <mxGeometry width="50" height="50" relative="1" as="geometry">
            <mxPoint x="160" y="410" as="sourcePoint"/>
            <mxPoint x="280" y="240" as="targetPoint"/>
          </mxGeometry>
        </mxCell>
        <mxCell id="ip46v-V34NV9mjhSKVE6-8" value="" style="whiteSpace=wrap;html=1;aspect=fixed;" vertex="1" parent="1">
          <mxGeometry x="480" y="200" width="80" height="80" as="geometry"/>
        </mxCell>
        <mxCell id="ip46v-V34NV9mjhSKVE6-9" value="" style="endArrow=none;html=1;" edge="1" parent="1">
          <mxGeometry width="50" height="50" relative="1" as="geometry">
            <mxPoint x="440" y="300" as="sourcePoint"/>
            <mxPoint x="440" y="180" as="targetPoint"/>
          </mxGeometry>
        </mxCell>
        <mxCell id="ip46v-V34NV9mjhSKVE6-10" value="" style="endArrow=none;html=1;exitX=1;exitY=0.5;exitDx=0;exitDy=0;" edge="1" parent="1" source="ip46v-V34NV9mjhSKVE6-2">
          <mxGeometry width="50" height="50" relative="1" as="geometry">
            <mxPoint x="450" y="200" as="sourcePoint"/>
            <mxPoint x="440" y="180" as="targetPoint"/>
          </mxGeometry>
        </mxCell>
        <mxCell id="ip46v-V34NV9mjhSKVE6-11" value="" style="endArrow=none;html=1;exitX=1;exitY=0.5;exitDx=0;exitDy=0;" edge="1" parent="1" source="ip46v-V34NV9mjhSKVE6-3">
          <mxGeometry width="50" height="50" relative="1" as="geometry">
            <mxPoint x="410" y="290" as="sourcePoint"/>
            <mxPoint x="440" y="300" as="targetPoint"/>
          </mxGeometry>
        </mxCell>
        <mxCell id="ip46v-V34NV9mjhSKVE6-12" value="" style="endArrow=classic;html=1;entryX=0;entryY=0.5;entryDx=0;entryDy=0;" edge="1" parent="1" target="ip46v-V34NV9mjhSKVE6-8">
          <mxGeometry width="50" height="50" relative="1" as="geometry">
            <mxPoint x="440" y="240" as="sourcePoint"/>
            <mxPoint x="210" y="360" as="targetPoint"/>
          </mxGeometry>
        </mxCell>
        <mxCell id="ip46v-V34NV9mjhSKVE6-14" value="Gesture Object" style="text;html=1;strokeColor=none;fillColor=none;align=center;verticalAlign=middle;whiteSpace=wrap;rounded=0;" vertex="1" parent="1">
          <mxGeometry x="413" y="150" width="40" height="20" as="geometry"/>
        </mxCell>
        <mxCell id="ip46v-V34NV9mjhSKVE6-15" value="Normalized Velocity" style="text;html=1;strokeColor=none;fillColor=none;align=center;verticalAlign=middle;whiteSpace=wrap;rounded=0;" vertex="1" parent="1">
          <mxGeometry x="420" y="310" width="40" height="20" as="geometry"/>
        </mxCell>
      </root>
    </mxGraphModel>
  </diagram>
</mxfile>
